<svg width="32" height="21" viewBox="0 0 32 21" fill="none" xmlns="http://www.w3.org/2000/svg">
<g clip-path="url(#clip0)">
<path fill-rule="evenodd" clip-rule="evenodd" d="M0 1.50024C0 0.671818 0.671573 0.000244141 1.5 0.000244141H30.5C31.3284 0.000244141 32 0.671817 32 1.50024V19.5002C32 20.3287 31.3284 21.0002 30.5 21.0002H1.5C0.671573 21.0002 0 20.3287 0 19.5002V1.50024Z" fill="url(#paint0_radial)"/>
<path fill-rule="evenodd" clip-rule="evenodd" d="M0 1.50024C0 0.671818 0.671573 0.000244141 1.5 0.000244141H30.5C31.3284 0.000244141 32 0.671817 32 1.50024V19.5002C32 20.3287 31.3284 21.0002 30.5 21.0002H1.5C0.671573 21.0002 0 20.3287 0 19.5002V1.50024Z" fill="#E5E5E5" fill-opacity="0.01"/>
<mask id="path-3-outside-1" maskUnits="userSpaceOnUse" x="3.56799" y="7.00024" width="25" height="7" fill="black">
<rect fill="white" x="3.56799" y="7.00024" width="25" height="7"/>
<path fill-rule="evenodd" clip-rule="evenodd" d="M7.39643 11.0675L8.06327 9.23274H8.07761L8.72294 11.0675H7.39643ZM7.50398 8.00024L5.56799 13.0002H6.70091L7.10244 11.8868H9.01692L9.40412 13.0002H10.5729L8.65841 8.00024H7.50398ZM11.0174 8.00024V13.0002H12.0715V9.49184H12.0858L13.3406 13.0002H14.2082L15.4631 9.45683H15.4774V13.0002H16.5314V8.00024H14.9468L13.8139 11.4386H13.7995L12.6021 8.00024H11.0174ZM17.5209 8.00024V13.0002H21.4073V12.0759H18.6467V10.8504H21.1276V9.99604H18.6467V8.92461H21.3499V8.00024H17.5209ZM23.4221 10.3812L21.6367 13.0002H22.8987L24.0388 11.2706L25.1573 13.0002H26.4982L24.7128 10.3882L26.3548 8.00024H25.1215L24.0818 9.59688L23.0779 8.00024H21.7729L23.4221 10.3812Z"/>
</mask>
<path fill-rule="evenodd" clip-rule="evenodd" d="M7.39643 11.0675L8.06327 9.23274H8.07761L8.72294 11.0675H7.39643ZM7.50398 8.00024L5.56799 13.0002H6.70091L7.10244 11.8868H9.01692L9.40412 13.0002H10.5729L8.65841 8.00024H7.50398ZM11.0174 8.00024V13.0002H12.0715V9.49184H12.0858L13.3406 13.0002H14.2082L15.4631 9.45683H15.4774V13.0002H16.5314V8.00024H14.9468L13.8139 11.4386H13.7995L12.6021 8.00024H11.0174ZM17.5209 8.00024V13.0002H21.4073V12.0759H18.6467V10.8504H21.1276V9.99604H18.6467V8.92461H21.3499V8.00024H17.5209ZM23.4221 10.3812L21.6367 13.0002H22.8987L24.0388 11.2706L25.1573 13.0002H26.4982L24.7128 10.3882L26.3548 8.00024H25.1215L24.0818 9.59688L23.0779 8.00024H21.7729L23.4221 10.3812Z" fill="#1793C0" fill-opacity="0.01"/>
<path d="M7.39643 11.0675L6.45658 10.7259L5.96897 12.0675H7.39643V11.0675ZM8.06327 9.23274V8.23274H7.36272L7.12342 8.89115L8.06327 9.23274ZM8.07761 9.23274L9.02096 8.90093L8.78593 8.23274H8.07761V9.23274ZM8.72294 11.0675V12.0675H10.1347L9.66629 10.7357L8.72294 11.0675ZM7.50398 8.00024V7.00024H6.81884L6.57145 7.63917L7.50398 8.00024ZM5.56799 13.0002L4.63546 12.6392L4.10845 14.0002H5.56799V13.0002ZM6.70091 13.0002V14.0002H7.40332L7.6416 13.3395L6.70091 13.0002ZM7.10244 11.8868V10.8868H6.40003L6.16175 11.5476L7.10244 11.8868ZM9.01692 11.8868L9.96144 11.5583L9.72792 10.8868H9.01692V11.8868ZM9.40412 13.0002L8.4596 13.3287L8.69313 14.0002H9.40412V13.0002ZM10.5729 13.0002V14.0002H12.0266L11.5068 12.6427L10.5729 13.0002ZM8.65841 8.00024L9.59229 7.64266L9.34631 7.00024H8.65841V8.00024ZM11.0174 8.00024V7.00024H10.0174V8.00024H11.0174ZM11.0174 13.0002H10.0174V14.0002H11.0174V13.0002ZM12.0715 13.0002V14.0002H13.0715V13.0002H12.0715ZM12.0715 9.49184V8.49184H11.0715V9.49184H12.0715ZM12.0858 9.49184L13.0274 9.15507L12.7902 8.49184H12.0858V9.49184ZM13.3406 13.0002L12.399 13.337L12.6363 14.0002H13.3406V13.0002ZM14.2082 13.0002V14.0002H14.915L15.1509 13.3341L14.2082 13.0002ZM15.4631 9.45683V8.45683H14.7563L14.5204 9.12302L15.4631 9.45683ZM15.4774 9.45683H16.4774V8.45683H15.4774V9.45683ZM15.4774 13.0002H14.4774V14.0002H15.4774V13.0002ZM16.5314 13.0002V14.0002H17.5314V13.0002H16.5314ZM16.5314 8.00024H17.5314V7.00024H16.5314V8.00024ZM14.9468 8.00024V7.00024H14.2234L13.997 7.6873L14.9468 8.00024ZM13.8139 11.4386V12.4386H14.5373L14.7636 11.7516L13.8139 11.4386ZM13.7995 11.4386L12.8552 11.7675L13.0889 12.4386H13.7995V11.4386ZM12.6021 8.00024L13.5465 7.67136L13.3127 7.00024H12.6021V8.00024ZM17.5209 8.00024V7.00024H16.5209V8.00024H17.5209ZM17.5209 13.0002H16.5209V14.0002H17.5209V13.0002ZM21.4073 13.0002V14.0002H22.4073V13.0002H21.4073ZM21.4073 12.0759H22.4073V11.0759H21.4073V12.0759ZM18.6467 12.0759H17.6467V13.0759H18.6467V12.0759ZM18.6467 10.8504V9.85038H17.6467V10.8504H18.6467ZM21.1276 10.8504V11.8504H22.1276V10.8504H21.1276ZM21.1276 9.99604H22.1276V8.99604H21.1276V9.99604ZM18.6467 9.99604H17.6467V10.996H18.6467V9.99604ZM18.6467 8.92461V7.92461H17.6467V8.92461H18.6467ZM21.3499 8.92461V9.92461H22.3499V8.92461H21.3499ZM21.3499 8.00024H22.3499V7.00024H21.3499V8.00024ZM23.4221 10.3812L24.2484 10.9445L24.6355 10.3767L24.2442 9.81179L23.4221 10.3812ZM21.6367 13.0002L20.8104 12.437L19.7448 14.0002H21.6367V13.0002ZM22.8987 13.0002V14.0002H23.4372L23.7336 13.5506L22.8987 13.0002ZM24.0388 11.2706L24.8785 10.7275L24.0467 9.44137L23.2038 10.7202L24.0388 11.2706ZM25.1573 13.0002L24.3176 13.5433L24.6131 14.0002H25.1573V13.0002ZM26.4982 13.0002V14.0002H28.393L27.3238 12.4359L26.4982 13.0002ZM24.7128 10.3882L23.8888 9.8216L23.5003 10.3865L23.8872 10.9525L24.7128 10.3882ZM26.3548 8.00024L27.1788 8.56684L28.256 7.00024H26.3548V8.00024ZM25.1215 8.00024V7.00024H24.5793L24.2835 7.45456L25.1215 8.00024ZM24.0818 9.59688L23.2352 10.1291L24.067 11.4521L24.9198 10.1426L24.0818 9.59688ZM23.0779 8.00024L23.9245 7.46798L23.6304 7.00024H23.0779V8.00024ZM21.7729 8.00024V7.00024H19.8638L20.9509 8.56965L21.7729 8.00024ZM8.33628 11.4091L9.00312 9.57433L7.12342 8.89115L6.45658 10.7259L8.33628 11.4091ZM8.06327 10.2327H8.07761V8.23274H8.06327V10.2327ZM7.13426 9.56454L7.77959 11.3993L9.66629 10.7357L9.02096 8.90093L7.13426 9.56454ZM8.72294 10.0675H7.39643V12.0675H8.72294V10.0675ZM6.57145 7.63917L4.63546 12.6392L6.50053 13.3613L8.43652 8.36132L6.57145 7.63917ZM5.56799 14.0002H6.70091V12.0002H5.56799V14.0002ZM7.6416 13.3395L8.04314 12.226L6.16175 11.5476L5.76021 12.661L7.6416 13.3395ZM7.10244 12.8868H9.01692V10.8868H7.10244V12.8868ZM8.0724 12.2153L8.4596 13.3287L10.3486 12.6718L9.96144 11.5583L8.0724 12.2153ZM9.40412 14.0002H10.5729V12.0002H9.40412V14.0002ZM11.5068 12.6427L9.59229 7.64266L7.72452 8.35782L9.639 13.3578L11.5068 12.6427ZM8.65841 7.00024H7.50398V9.00024H8.65841V7.00024ZM10.0174 8.00024V13.0002H12.0174V8.00024H10.0174ZM11.0174 14.0002H12.0715V12.0002H11.0174V14.0002ZM13.0715 13.0002V9.49184H11.0715V13.0002H13.0715ZM12.0715 10.4918H12.0858V8.49184H12.0715V10.4918ZM11.1442 9.82861L12.399 13.337L14.2822 12.6635L13.0274 9.15507L11.1442 9.82861ZM13.3406 14.0002H14.2082V12.0002H13.3406V14.0002ZM15.1509 13.3341L16.4057 9.79064L14.5204 9.12302L13.2656 12.6664L15.1509 13.3341ZM15.4631 10.4568H15.4774V8.45683H15.4631V10.4568ZM14.4774 9.45683V13.0002H16.4774V9.45683H14.4774ZM15.4774 14.0002H16.5314V12.0002H15.4774V14.0002ZM17.5314 13.0002V8.00024H15.5314V13.0002H17.5314ZM16.5314 7.00024H14.9468V9.00024H16.5314V7.00024ZM13.997 7.6873L12.8641 11.1257L14.7636 11.7516L15.8966 8.31319L13.997 7.6873ZM13.8139 10.4386H13.7995V12.4386H13.8139V10.4386ZM14.7439 11.1097L13.5465 7.67136L11.6577 8.32913L12.8552 11.7675L14.7439 11.1097ZM12.6021 7.00024H11.0174V9.00024H12.6021V7.00024ZM16.5209 8.00024V13.0002H18.5209V8.00024H16.5209ZM17.5209 14.0002H21.4073V12.0002H17.5209V14.0002ZM22.4073 13.0002V12.0759H20.4073V13.0002H22.4073ZM21.4073 11.0759H18.6467V13.0759H21.4073V11.0759ZM19.6467 12.0759V10.8504H17.6467V12.0759H19.6467ZM18.6467 11.8504H21.1276V9.85038H18.6467V11.8504ZM22.1276 10.8504V9.99604H20.1276V10.8504H22.1276ZM21.1276 8.99604H18.6467V10.996H21.1276V8.99604ZM19.6467 9.99604V8.92461H17.6467V9.99604H19.6467ZM18.6467 9.92461H21.3499V7.92461H18.6467V9.92461ZM22.3499 8.92461V8.00024H20.3499V8.92461H22.3499ZM21.3499 7.00024H17.5209V9.00024H21.3499V7.00024ZM22.5959 9.81792L20.8104 12.437L22.463 13.5635L24.2484 10.9445L22.5959 9.81792ZM21.6367 14.0002H22.8987V12.0002H21.6367V14.0002ZM23.7336 13.5506L24.8737 11.8209L23.2038 10.7202L22.0637 12.4499L23.7336 13.5506ZM23.1991 11.8136L24.3176 13.5433L25.9971 12.4572L24.8785 10.7275L23.1991 11.8136ZM25.1573 14.0002H26.4982V12.0002H25.1573V14.0002ZM27.3238 12.4359L25.5384 9.8239L23.8872 10.9525L25.6726 13.5645L27.3238 12.4359ZM25.5368 10.9548L27.1788 8.56684L25.5308 7.43365L23.8888 9.8216L25.5368 10.9548ZM26.3548 7.00024H25.1215V9.00024H26.3548V7.00024ZM24.2835 7.45456L23.2438 9.0512L24.9198 10.1426L25.9595 8.54593L24.2835 7.45456ZM24.9284 9.06462L23.9245 7.46798L22.2314 8.53251L23.2352 10.1291L24.9284 9.06462ZM23.0779 7.00024H21.7729V9.00024H23.0779V7.00024ZM20.9509 8.56965L22.6001 10.9506L24.2442 9.81179L22.595 7.43084L20.9509 8.56965Z" fill="white" mask="url(#path-3-outside-1)"/>
</g>
<defs>
<radialGradient id="paint0_radial" cx="0" cy="0" r="1" gradientUnits="userSpaceOnUse" gradientTransform="translate(10.7461 3.98071) rotate(90) scale(21 32)">
<stop stop-color="#71C8F2"/>
<stop offset="1" stop-color="#0071BD"/>
</radialGradient>
<clipPath id="clip0">
<rect width="32" height="21" fill="white" transform="translate(0 0.000244141)"/>
</clipPath>
</defs>
</svg>
