<svg width="32" height="21" viewBox="0 0 32 21" fill="none" xmlns="http://www.w3.org/2000/svg">
<g clip-path="url(#clip0)">
<path fill-rule="evenodd" clip-rule="evenodd" d="M0 1.50024C0 0.671818 0.671573 0.000244141 1.5 0.000244141H30.5C31.3284 0.000244141 32 0.671817 32 1.50024V19.5002C32 20.3287 31.3284 21.0002 30.5 21.0002H1.5C0.671573 21.0002 0 20.3287 0 19.5002V1.50024Z" fill="#F4F6F7"/>
<path fill-rule="evenodd" clip-rule="evenodd" d="M0 1.50024C0 0.671818 0.671573 0.000244141 1.5 0.000244141H30.5C31.3284 0.000244141 32 0.671817 32 1.50024V19.5002C32 20.3287 31.3284 21.0002 30.5 21.0002H1.5C0.671573 21.0002 0 20.3287 0 19.5002V1.50024Z" fill="#E5E5E5" fill-opacity="0.01"/>
<path fill-rule="evenodd" clip-rule="evenodd" d="M17.3134 15.4804C20.0165 15.4935 22.4837 13.2559 22.4837 10.5337C22.4837 7.55688 20.0165 5.49925 17.3134 5.50024H14.987C12.2516 5.49925 10 7.55749 10 10.5337C10 13.2565 12.2516 15.4935 14.987 15.4804H17.3134Z" fill="url(#paint0_linear)"/>
<path fill-rule="evenodd" clip-rule="evenodd" d="M14.9967 5.91602C12.497 5.91681 10.4715 7.96136 10.4709 10.4847C10.4715 13.0077 12.497 15.0521 14.9967 15.0528C17.4969 15.0521 19.5228 13.0077 19.5231 10.4847C19.5228 7.96136 17.4969 5.91681 14.9967 5.91602ZM12.1279 10.4847C12.1303 9.25168 12.8934 8.20019 13.9696 7.78235V13.1865C12.8934 12.7689 12.1303 11.718 12.1279 10.4847ZM16.0233 13.1877V7.78217C17.0999 8.19901 17.8642 9.25108 17.8662 10.4847C17.8642 11.7188 17.0999 12.7701 16.0233 13.1877Z" fill="#F4F6F7"/>
</g>
<defs>
<linearGradient id="paint0_linear" x1="25.0743" y1="13.5705" x2="21.8728" y2="3.10779" gradientUnits="userSpaceOnUse">
<stop stop-color="#009BE0"/>
<stop offset="1" stop-color="#006BA8"/>
</linearGradient>
<clipPath id="clip0">
<rect width="32" height="21" fill="white" transform="translate(0 0.000244141)"/>
</clipPath>
</defs>
</svg>
