<svg width="32" height="21" viewBox="0 0 32 21" fill="none" xmlns="http://www.w3.org/2000/svg">
<g clip-path="url(#clip0)">
<path fill-rule="evenodd" clip-rule="evenodd" d="M0 1.50024C0 0.671818 0.671573 0.000244141 1.5 0.000244141H30.5C31.3284 0.000244141 32 0.671817 32 1.50024V19.5002C32 20.3287 31.3284 21.0002 30.5 21.0002H1.5C0.671573 21.0002 0 20.3287 0 19.5002V1.50024Z" fill="url(#paint0_linear)"/>
<path fill-rule="evenodd" clip-rule="evenodd" d="M0 1.50024C0 0.671818 0.671573 0.000244141 1.5 0.000244141H30.5C31.3284 0.000244141 32 0.671817 32 1.50024V19.5002C32 20.3287 31.3284 21.0002 30.5 21.0002H1.5C0.671573 21.0002 0 20.3287 0 19.5002V1.50024Z" fill="#E5E5E5" fill-opacity="0.01"/>
<path fill-rule="evenodd" clip-rule="evenodd" d="M7.01632 11.3334C6.80583 11.5247 6.5323 11.6082 6.09938 11.6082H5.91955V9.32239H6.09938C6.5323 9.32239 6.79508 9.40038 7.01632 9.60202C7.24804 9.80955 7.38739 10.1314 7.38739 10.4624C7.38739 10.7943 7.24804 11.1259 7.01632 11.3334ZM6.23356 8.73682H5.25V12.1932H6.22838C6.74863 12.1932 7.12435 12.0699 7.45402 11.7942C7.84593 11.468 8.07765 10.9762 8.07765 10.4675C8.07765 9.44738 7.32024 8.73682 6.23356 8.73682Z" fill="#212D34"/>
<path fill-rule="evenodd" clip-rule="evenodd" d="M8.38599 12.1934H9.05607V8.73682H8.38599V12.1934Z" fill="#212D34"/>
<path fill-rule="evenodd" clip-rule="evenodd" d="M10.6944 10.0632C10.2923 9.91347 10.1743 9.81478 10.1743 9.62796C10.1743 9.41029 10.3847 9.24483 10.6735 9.24483C10.8741 9.24483 11.0392 9.32789 11.2138 9.52473L11.5644 9.06281C11.2763 8.80922 10.9316 8.67969 10.555 8.67969C9.94711 8.67969 9.48353 9.10435 9.48353 9.67002C9.48353 10.1462 9.69933 10.3901 10.3287 10.6179C10.5911 10.7111 10.7246 10.7731 10.7918 10.8147C10.9258 10.9027 10.9928 11.0273 10.9928 11.1725C10.9928 11.4525 10.7715 11.66 10.4725 11.66C10.153 11.66 9.89549 11.4991 9.74127 11.1989L9.30835 11.6184C9.61705 12.0744 9.98786 12.2765 10.4978 12.2765C11.194 12.2765 11.6825 11.8105 11.6825 11.1415C11.6825 10.5923 11.4566 10.3437 10.6944 10.0632Z" fill="#212D34"/>
<path fill-rule="evenodd" clip-rule="evenodd" d="M11.8939 10.4675C11.8939 11.4835 12.6868 12.2712 13.7071 12.2712C13.9955 12.2712 14.2426 12.2142 14.5472 12.0698V11.2762C14.2794 11.546 14.0421 11.6548 13.7383 11.6548C13.0634 11.6548 12.5844 11.1624 12.5844 10.4624C12.5844 9.79886 13.0785 9.27538 13.7071 9.27538C14.0267 9.27538 14.2686 9.39009 14.5472 9.66425V8.87102C14.2531 8.72092 14.0113 8.65869 13.7229 8.65869C12.7077 8.65869 11.8939 9.46247 11.8939 10.4675Z" fill="#212D34"/>
<path fill-rule="evenodd" clip-rule="evenodd" d="M19.86 11.0585L18.944 8.73682H18.2119L19.6697 12.282H20.0303L21.5143 8.73682H20.7879L19.86 11.0585Z" fill="#212D34"/>
<path fill-rule="evenodd" clip-rule="evenodd" d="M21.8173 12.1931H23.7175V11.608H22.4868V10.6749H23.6722V10.0895H22.4868V9.32228H23.7175V8.73657H21.8173V12.1931Z" fill="#212D34"/>
<path fill-rule="evenodd" clip-rule="evenodd" d="M25.0263 10.328H24.8305V9.28115H25.0369C25.4543 9.28115 25.6811 9.45702 25.6811 9.79341C25.6811 10.1409 25.4543 10.328 25.0263 10.328ZM26.3706 9.75709C26.3706 9.10995 25.9276 8.73657 25.1549 8.73657H24.1613V12.1931H24.8305V10.8046H24.918L25.8454 12.1931H26.6695L25.588 10.737C26.0927 10.6336 26.3706 10.2863 26.3706 9.75709Z" fill="#212D34"/>
<g filter="url(#filter0_i)">
<path fill-rule="evenodd" clip-rule="evenodd" d="M18.4209 10.4769C18.4209 11.4925 17.6027 12.3158 16.5934 12.3158C15.5841 12.3158 14.766 11.4925 14.766 10.4769C14.766 9.46133 15.5841 8.63818 16.5934 8.63818C17.6027 8.63818 18.4209 9.46133 18.4209 10.4769Z" fill="url(#paint1_linear)"/>
</g>
</g>
<defs>
<filter id="filter0_i" x="14.766" y="8.63818" width="3.65487" height="3.67757" filterUnits="userSpaceOnUse" color-interpolation-filters="sRGB">
<feFlood flood-opacity="0" result="BackgroundImageFix"/>
<feBlend mode="normal" in="SourceGraphic" in2="BackgroundImageFix" result="shape"/>
<feColorMatrix in="SourceAlpha" type="matrix" values="0 0 0 0 0 0 0 0 0 0 0 0 0 0 0 0 0 0 127 0" result="hardAlpha"/>
<feOffset dx="1" dy="1"/>
<feComposite in2="hardAlpha" operator="arithmetic" k2="-1" k3="1"/>
<feColorMatrix type="matrix" values="0 0 0 0 0.314068 0 0 0 0 0.00146228 0 0 0 0 0.00146228 0 0 0 0.5 0"/>
<feBlend mode="normal" in2="shape" result="effect1_innerShadow"/>
</filter>
<linearGradient id="paint0_linear" x1="-16" y1="10.5002" x2="3.26553" y2="39.8572" gradientUnits="userSpaceOnUse">
<stop stop-color="#EDF1F3"/>
<stop offset="1" stop-color="#D3DADF"/>
</linearGradient>
<linearGradient id="paint1_linear" x1="18.832" y1="10.8284" x2="16.6635" y2="8.2637" gradientUnits="userSpaceOnUse">
<stop stop-color="#FFA700"/>
<stop offset="1" stop-color="#E75A10"/>
</linearGradient>
<clipPath id="clip0">
<rect width="32" height="21" fill="white" transform="translate(0 0.000244141)"/>
</clipPath>
</defs>
</svg>
