<svg width="34" height="34" viewBox="0 0 34 34" fill="none" xmlns="http://www.w3.org/2000/svg">
<g clip-path="url(#clip0)">
<path d="M4.46453 21.9773L6.17485 23.2721C6.18909 23.2835 6.20306 23.2951 6.2177 23.3061L7.32235 24.1409C7.32235 24.1409 11.7047 27.4576 11.7076 27.4597C12.101 27.7547 12.5893 27.9295 13.1177 27.9295H18.0358C18.3102 27.9295 18.5326 27.7072 18.5326 27.4328C18.5326 27.1584 18.3102 26.936 18.0358 26.936H13.1177C12.3666 26.936 11.7555 26.325 11.7555 25.574C11.7555 24.8229 12.3666 24.2119 13.1177 24.2119H19.9629C20.2373 24.2119 20.4597 23.9895 20.4597 23.7152C20.4597 23.4408 20.2373 23.2184 19.9629 23.2184H17.5672V20.302C17.5672 20.0276 17.3448 19.8053 17.0705 19.8053C16.7961 19.8053 16.5737 20.0276 16.5737 20.302V23.2184H13.1177C13.101 23.2184 13.0846 23.2194 13.068 23.2197V8.64168H16.5738V18.1851C16.5738 18.4595 16.7962 18.6818 17.0705 18.6818C17.3449 18.6818 17.5673 18.4595 17.5673 18.1851V8.59446C18.3192 8.41445 18.8799 7.73711 18.8799 6.93083V2.18042C18.8799 0.97815 17.9017 0 16.6994 0H3.78236C3.50803 0 3.28563 0.222334 3.28563 0.496725C3.28563 0.771115 3.50803 0.993449 3.78236 0.993449H16.6994C17.3539 0.993449 17.8864 1.52594 17.8864 2.18042V4.99665H11.4846V3.59715C11.4846 3.32276 11.2622 3.10042 10.9879 3.10042H9.19685C8.92253 3.10042 8.70013 3.32276 8.70013 3.59715C8.70013 3.87154 8.92253 4.09387 9.19685 4.09387H10.4912V6.93076C10.4912 7.83116 11.1906 8.57088 12.0745 8.63638V19.8824L11.7211 19.6153C10.9906 19.0635 9.94731 19.2087 9.39541 19.9391C9.25255 20.1281 9.15679 20.3383 9.10539 20.5553L8.59025 20.1661C7.7245 19.512 6.48805 19.6842 5.83396 20.5498C5.62521 20.8261 5.49612 21.1451 5.45268 21.4794L5.06411 21.1852C4.2616 20.5776 3.13827 20.6279 2.39299 21.3043C1.96289 21.6947 1.71923 22.2295 1.70691 22.8103C1.69459 23.391 1.91534 23.9356 2.32854 24.3439L5.2518 27.2327C5.44698 27.4255 5.76144 27.4235 5.95424 27.2285C6.1471 27.0334 6.14518 26.7189 5.95006 26.5261L3.02681 23.6373C2.8097 23.4228 2.69367 23.1365 2.70009 22.8313C2.70658 22.5262 2.83461 22.245 3.06065 22.0399C3.45247 21.6843 4.04284 21.6581 4.46453 21.9773ZM11.4846 6.93076V5.9901H17.8864V6.93076C17.8864 7.32642 17.5645 7.64823 17.169 7.64823H12.2021C11.8065 7.64823 11.4846 7.32642 11.4846 6.93076ZM10.1881 20.5381C10.4098 20.2447 10.8289 20.1865 11.1222 20.408L12.0745 21.1276V22.799L10.3102 21.4659C10.0239 21.2424 9.96837 20.8288 10.1881 20.5381ZM6.62667 21.1487C6.95047 20.7201 7.56283 20.6349 7.9914 20.9587L9.70371 22.2526C9.70894 22.2566 9.71385 22.2609 9.71914 22.2649L11.6562 23.7286C11.131 24.1454 10.7874 24.7809 10.7641 25.4963L7.93762 23.3606L6.79662 22.4969C6.38606 22.1691 6.30804 21.5704 6.62667 21.1487Z" fill="#8A5137"/>
<path d="M25.2935 33.1219L22.7894 31.0339C22.7002 30.9594 22.5876 30.9187 22.4713 30.9187H11.2615C10.7027 30.9187 10.1762 30.7024 9.77883 30.3097L7.45801 28.0164C7.26283 27.8235 6.94837 27.8255 6.75557 28.0206C6.56278 28.2157 6.56463 28.5301 6.75974 28.723L9.08057 31.0164C9.66505 31.594 10.4396 31.9121 11.2615 31.9121H22.2914L24.6573 33.8848C24.7501 33.9623 24.8629 34.0001 24.9751 34.0001C25.1173 34.0001 25.2586 33.9393 25.3568 33.8215C25.5326 33.6108 25.5042 33.2976 25.2935 33.1219Z" fill="#8A5137"/>
<path d="M7.07996 3.1004H3.78237C3.50804 3.1004 3.28564 3.32274 3.28564 3.59713C3.28564 3.87152 3.50804 4.09385 3.78237 4.09385H7.08003C7.35435 4.09385 7.57675 3.87152 7.57675 3.59713C7.57675 3.32274 7.35435 3.1004 7.07996 3.1004Z" fill="#8A5137"/>
<path d="M15.6408 13.7908V10.4545C15.6408 10.1801 15.4184 9.95776 15.1441 9.95776C14.8697 9.95776 14.6473 10.1801 14.6473 10.4545V13.7908C14.6473 14.0652 14.8697 14.2875 15.1441 14.2875C15.4184 14.2875 15.6408 14.0651 15.6408 13.7908Z" fill="#8A5137"/>
<path d="M13.959 19.7765V20.8276C13.959 21.102 14.1814 21.3243 14.4557 21.3243C14.73 21.3243 14.9524 21.102 14.9524 20.8276V19.7765C14.9524 19.5021 14.73 19.2798 14.4557 19.2798C14.1814 19.2798 13.959 19.5021 13.959 19.7765Z" fill="#8A5137"/>
<path d="M20.1257 13.0997C20.5132 13.2386 21.5445 13.6083 22.3362 13.6083C22.5182 13.6083 22.6876 13.5887 22.8335 13.5423C23.8731 13.212 24.45 12.0974 24.1196 11.0577C23.7892 10.0182 22.6746 9.44119 21.635 9.77167C21.4419 9.833 20.8544 10.0198 19.6796 11.6964C19.5125 11.9351 19.4671 12.2309 19.5554 12.5084C19.6435 12.7858 19.8513 13.0013 20.1257 13.0997ZM21.936 10.7184C22.4535 10.554 23.0084 10.8412 23.1729 11.3587C23.2526 11.6094 23.2299 11.8761 23.1089 12.1097C22.988 12.3433 22.7833 12.5159 22.5326 12.5956C22.325 12.6613 21.6813 12.5941 20.5442 12.1941C21.2419 11.211 21.7285 10.7844 21.936 10.7184Z" fill="#8A5137"/>
<path d="M22.0436 15.5212C21.893 15.5117 21.4355 15.4847 20.2397 16.2886C20.0342 16.4267 19.9077 16.6477 19.8928 16.8948C19.8779 17.142 19.977 17.3766 20.1646 17.5385C21.2556 18.4799 21.713 18.5075 21.8634 18.5166H21.8634C21.8939 18.5184 21.9242 18.5193 21.9544 18.5193C22.7408 18.5193 23.4033 17.9043 23.4511 17.109C23.4752 16.7089 23.342 16.3235 23.0762 16.0235C22.8103 15.7236 22.4436 15.5452 22.0436 15.5212ZM22.4595 17.0493C22.4427 17.3282 22.2018 17.5421 21.9235 17.5249C21.8527 17.5182 21.5646 17.401 21.0244 16.963C21.6136 16.5926 21.914 16.5128 21.984 16.5129C22.1191 16.521 22.243 16.5813 22.3328 16.6826C22.4226 16.784 22.4676 16.9141 22.4595 17.0493Z" fill="#8A5137"/>
<path d="M6.55828 12.4168C6.36847 12.8585 6.36211 13.3477 6.54027 13.7941C6.71836 14.2406 7.05971 14.591 7.5014 14.7807C7.59094 14.8192 7.77764 14.8995 8.19853 14.8995C8.56902 14.8995 9.12098 14.8373 9.94773 14.6296C10.2144 14.5626 10.4297 14.3794 10.5382 14.1268C10.6467 13.8743 10.6316 13.592 10.4965 13.3524C9.60281 11.7662 9.09058 11.5461 8.92229 11.4737C8.48067 11.284 7.99143 11.2775 7.54504 11.4557C7.09845 11.6338 6.74803 11.9752 6.55828 12.4168ZM7.47106 12.809C7.55604 12.6111 7.713 12.4582 7.91308 12.3784C8.00978 12.3398 8.11091 12.3206 8.21198 12.3206C8.32 12.3206 8.42789 12.3426 8.53008 12.3865C8.66194 12.4431 9.02058 12.7852 9.55294 13.7035C8.52034 13.9494 8.02547 13.9247 7.89361 13.868C7.69578 13.783 7.54286 13.626 7.46305 13.4259C7.38318 13.226 7.38602 13.0069 7.47106 12.809Z" fill="#8A5137"/>
<path d="M32.096 28.283L28.0094 25.1996C26.3161 23.922 24.2152 23.2184 22.0939 23.2184H22.0799C21.8055 23.2184 21.5831 23.4407 21.5831 23.7151C21.5831 23.9895 21.8055 24.2118 22.0799 24.2118H22.0939C24.0007 24.2118 25.889 24.8443 27.411 25.9927L31.4977 29.0761C31.5873 29.1437 31.6923 29.1763 31.7964 29.1763C31.947 29.1763 32.0957 29.1082 32.1934 28.9788C32.3586 28.7597 32.315 28.4482 32.096 28.283Z" fill="#8A5137"/>
</g>
<defs>
<clipPath id="clip0">
<rect width="34" height="34" fill="white"/>
</clipPath>
</defs>
</svg>
