<svg width="32" height="21" viewBox="0 0 32 21" fill="none" xmlns="http://www.w3.org/2000/svg">
<g clip-path="url(#clip0)">
<path fill-rule="evenodd" clip-rule="evenodd" d="M0 1.50024C0 0.671818 0.671573 0.000244141 1.5 0.000244141H30.5C31.3284 0.000244141 32 0.671817 32 1.50024V19.5002C32 20.3287 31.3284 21.0002 30.5 21.0002H1.5C0.671573 21.0002 0 20.3287 0 19.5002V1.50024Z" fill="#F4F6F7"/>
<path fill-rule="evenodd" clip-rule="evenodd" d="M0 1.50024C0 0.671818 0.671573 0.000244141 1.5 0.000244141H30.5C31.3284 0.000244141 32 0.671817 32 1.50024V19.5002C32 20.3287 31.3284 21.0002 30.5 21.0002H1.5C0.671573 21.0002 0 20.3287 0 19.5002V1.50024Z" fill="#E5E5E5" fill-opacity="0.01"/>
<path fill-rule="evenodd" clip-rule="evenodd" d="M20.7461 6.00024C20.6446 6.0005 20.5432 6.00359 20.4435 6.01374C20.0534 6.05338 19.6864 6.22745 19.4228 6.49603C19.2272 6.69527 19.0915 6.94202 19.0339 7.20586C19.0055 7.33611 19.0018 7.4667 19.0018 7.59868V8.47477V8.89944V9.02424C19.0018 9.05765 18.9932 9.06028 19.0331 9.06028H19.6573H20.2793H20.905C21.1093 9.06028 21.3152 9.05317 21.5189 9.07026C21.7196 9.08714 21.9238 9.13997 22.0861 9.25402C22.3143 9.41443 22.4071 9.69113 22.3291 9.94567C22.2543 10.19 22.0298 10.3538 21.7733 10.4219C21.7449 10.4294 21.7161 10.4359 21.6872 10.4414C21.6704 10.4446 21.6478 10.444 21.6325 10.4505C21.625 10.4538 21.6058 10.4578 21.6198 10.4701C21.6234 10.4732 21.6382 10.4732 21.6492 10.4731C21.6537 10.4731 21.6575 10.4731 21.6597 10.4732C21.7402 10.4804 21.8203 10.4933 21.8984 10.513C22.1373 10.5732 22.3692 10.7028 22.4799 10.9154C22.6109 11.167 22.5441 11.4786 22.3325 11.6738C22.1658 11.8276 21.9331 11.906 21.7028 11.9321C21.5873 11.9451 21.471 11.9424 21.3549 11.9424H20.7292H20.1034H19.4814H19.1686H19.0904C19.0725 11.9424 19.0221 11.9342 19.0075 11.9424C18.9989 11.9472 19.0018 11.9542 19.0018 11.9669V12.5015V13.445V14.3984V14.9627C19.0018 14.9684 18.9977 14.9931 19.0018 14.9977C19.0068 15.0031 19.0488 14.9983 19.0591 14.9983H19.1373H19.4502H20.0721H20.6979H21.3216C21.6932 14.9983 22.047 14.9092 22.3481 14.7008C22.7566 14.4183 22.9978 13.9692 22.9999 13.4978C23 13.4796 23 13.4613 23 13.4431V13.4164C23 13.376 22.9999 13.3356 22.9999 13.2953V12.7983C22.9999 12.5578 22.9999 12.3172 22.9999 12.0767C22.9999 11.7812 22.9999 11.4857 22.9999 11.1902C22.9999 10.8641 22.9999 10.538 22.9999 10.212C22.9999 9.87456 22.9999 9.53711 22.9999 9.19971C22.9999 8.87432 22.9999 8.54897 22.9999 8.22358C22.9999 7.93342 22.9999 7.64331 22.9999 7.35316C22.9999 7.11779 22.9999 6.88242 22.9999 6.64705V6.17686C22.9999 6.11945 22.9999 6.06205 22.9999 6.0046H22.9935C22.7947 6.0049 22.5958 6.0046 22.3969 6.0046H21.7733H21.1475C21.0239 6.0046 20.8982 6.00054 20.773 6.00024H20.7461ZM20.002 9.61078C19.9981 9.62376 20.002 9.65246 20.002 9.66643V10.1664V10.4C20.002 10.4195 19.9957 10.4866 20.0053 10.4965C20.0134 10.5049 20.0488 10.4965 20.0593 10.4965H20.1176H20.2298H20.4528C20.526 10.4965 20.5994 10.4984 20.6726 10.4965C20.7632 10.4941 20.8511 10.4551 20.9155 10.3593C20.9884 10.251 21.0145 10.0916 20.9923 9.94538C20.9822 9.8807 20.9627 9.82007 20.934 9.76822C20.8788 9.66887 20.7965 9.61379 20.7095 9.60362C20.6681 9.59879 20.6264 9.60102 20.5849 9.60102H20.3619H20.1346H20.024C20.018 9.60102 20.014 9.60024 20.0111 9.60024C20.0067 9.60024 20.0047 9.60201 20.002 9.61078ZM20.4489 10.5006H20.0018C20.0018 10.5089 20.0018 10.5171 20.0018 10.5254V10.9728V11.2369V11.3334C20.0018 11.3471 19.9978 11.3762 20.0018 11.3889C20.0078 11.408 20.0633 11.3972 20.0812 11.3972H20.1943H20.4179H20.6428C20.7158 11.3972 20.7859 11.3907 20.8507 11.3354C20.9294 11.2681 20.983 11.1507 20.9964 11.0199C21.0119 10.8703 20.9768 10.7154 20.8988 10.6139C20.8355 10.5318 20.7572 10.5015 20.6738 10.5006C20.6488 10.5003 20.6238 10.5002 20.5988 10.5002C20.5488 10.5002 20.4989 10.5006 20.4489 10.5006Z" fill="url(#paint0_linear)"/>
<mask id="mask0" mask-type="alpha" maskUnits="userSpaceOnUse" x="19" y="6" width="4" height="10">
<path fill-rule="evenodd" clip-rule="evenodd" d="M20.7461 6.00024C20.6446 6.0005 20.5432 6.00359 20.4435 6.01374C20.0534 6.05338 19.6864 6.22745 19.4228 6.49603C19.2272 6.69527 19.0915 6.94202 19.0339 7.20586C19.0055 7.33611 19.0018 7.4667 19.0018 7.59868V8.47477V8.89944V9.02424C19.0018 9.05765 18.9932 9.06028 19.0331 9.06028H19.6573H20.2793H20.905C21.1093 9.06028 21.3152 9.05317 21.5189 9.07026C21.7196 9.08714 21.9238 9.13997 22.0861 9.25402C22.3143 9.41443 22.4071 9.69113 22.3291 9.94567C22.2543 10.19 22.0298 10.3538 21.7733 10.4219C21.7449 10.4294 21.7161 10.4359 21.6872 10.4414C21.6704 10.4446 21.6478 10.444 21.6325 10.4505C21.625 10.4538 21.6058 10.4578 21.6198 10.4701C21.6234 10.4732 21.6382 10.4732 21.6492 10.4731C21.6537 10.4731 21.6575 10.4731 21.6597 10.4732C21.7402 10.4804 21.8203 10.4933 21.8984 10.513C22.1373 10.5732 22.3692 10.7028 22.4799 10.9154C22.6109 11.167 22.5441 11.4786 22.3325 11.6738C22.1658 11.8276 21.9331 11.906 21.7028 11.9321C21.5873 11.9451 21.471 11.9424 21.3549 11.9424H20.7292H20.1034H19.4814H19.1686H19.0904C19.0725 11.9424 19.0221 11.9342 19.0075 11.9424C18.9989 11.9472 19.0018 11.9542 19.0018 11.9669V12.5015V13.445V14.3984V14.9627C19.0018 14.9684 18.9977 14.9931 19.0018 14.9977C19.0068 15.0031 19.0488 14.9983 19.0591 14.9983H19.1373H19.4502H20.0721H20.6979H21.3216C21.6932 14.9983 22.047 14.9092 22.3481 14.7008C22.7566 14.4183 22.9978 13.9692 22.9999 13.4978C23 13.4796 23 13.4613 23 13.4431V13.4164C23 13.376 22.9999 13.3356 22.9999 13.2953V12.7983C22.9999 12.5578 22.9999 12.3172 22.9999 12.0767C22.9999 11.7812 22.9999 11.4857 22.9999 11.1902C22.9999 10.8641 22.9999 10.538 22.9999 10.212C22.9999 9.87456 22.9999 9.53711 22.9999 9.19971C22.9999 8.87432 22.9999 8.54897 22.9999 8.22358C22.9999 7.93342 22.9999 7.64331 22.9999 7.35316C22.9999 7.11779 22.9999 6.88242 22.9999 6.64705V6.17686C22.9999 6.11945 22.9999 6.06205 22.9999 6.0046H22.9935C22.7947 6.0049 22.5958 6.0046 22.3969 6.0046H21.7733H21.1475C21.0239 6.0046 20.8982 6.00054 20.773 6.00024H20.7461ZM20.002 9.61078C19.9981 9.62376 20.002 9.65246 20.002 9.66643V10.1664V10.4C20.002 10.4195 19.9957 10.4866 20.0053 10.4965C20.0134 10.5049 20.0488 10.4965 20.0593 10.4965H20.1176H20.2298H20.4528C20.526 10.4965 20.5994 10.4984 20.6726 10.4965C20.7632 10.4941 20.8511 10.4551 20.9155 10.3593C20.9884 10.251 21.0145 10.0916 20.9923 9.94538C20.9822 9.8807 20.9627 9.82007 20.934 9.76822C20.8788 9.66887 20.7965 9.61379 20.7095 9.60362C20.6681 9.59879 20.6264 9.60102 20.5849 9.60102H20.3619H20.1346H20.024C20.018 9.60102 20.014 9.60024 20.0111 9.60024C20.0067 9.60024 20.0047 9.60201 20.002 9.61078ZM20.4489 10.5006H20.0018C20.0018 10.5089 20.0018 10.5171 20.0018 10.5254V10.9728V11.2369V11.3334C20.0018 11.3471 19.9978 11.3762 20.0018 11.3889C20.0078 11.408 20.0633 11.3972 20.0812 11.3972H20.1943H20.4179H20.6428C20.7158 11.3972 20.7859 11.3907 20.8507 11.3354C20.9294 11.2681 20.983 11.1507 20.9964 11.0199C21.0119 10.8703 20.9768 10.7154 20.8988 10.6139C20.8355 10.5318 20.7572 10.5015 20.6738 10.5006C20.6488 10.5003 20.6238 10.5002 20.5988 10.5002C20.5488 10.5002 20.4989 10.5006 20.4489 10.5006Z" fill="white"/>
</mask>
<g mask="url(#mask0)">
</g>
<path fill-rule="evenodd" clip-rule="evenodd" d="M10.3587 6.02026C10.1285 6.05483 9.90759 6.1368 9.71452 6.25762C9.26969 6.53607 9.00351 7.00753 9.00155 7.50366C9.001 7.64953 9.00155 7.7954 9.00155 7.94131V8.87039V9.95059V10.8416V11.1105V11.1815C9.00155 11.209 9.00127 11.2032 9.03508 11.2181C9.07269 11.2346 9.11048 11.2506 9.14845 11.2662C9.45159 11.3905 9.7713 11.4851 10.1012 11.5224C10.3384 11.5491 10.5917 11.5566 10.8157 11.469C10.9951 11.3989 11.1381 11.2695 11.2116 11.1017C11.2589 10.9939 11.2724 10.88 11.2724 10.7646V9.48586V9.19797V9.10614C11.2724 9.09696 11.2668 9.06831 11.2724 9.06061C11.2794 9.051 11.3349 9.05714 11.3508 9.05714H11.4717H11.71H12.6666V9.0835V10.3459C12.6666 10.4941 12.6669 10.6423 12.6666 10.7905C12.6663 10.9632 12.6389 11.1365 12.5625 11.2951C12.4865 11.4533 12.3644 11.5869 12.2136 11.6886C11.8478 11.9353 11.3631 11.9996 10.921 12.0181C10.6047 12.0313 10.2872 12.0199 9.97228 11.9908C9.64686 11.9607 9.31764 11.916 9.00155 11.8372V11.9396V12.6415V13.6656V14.5907V14.885V14.9676C9.00155 14.972 8.99807 14.9937 9.00155 14.9973C9.00813 15.0039 9.06807 14.9973 9.07992 14.9973H9.16003H9.32404H9.64832H10.2983H10.9485C11.2241 14.9973 11.5068 15.0149 11.7763 14.9519C12.2474 14.8417 12.6477 14.5335 12.8515 14.1255C12.9634 13.9015 13 13.6635 13 13.4196V13.0177V12.3406V11.4631V10.4645V9.41104V8.38154V7.45428V6.69645V6.18686V6.00037H12.8384H12.163H11.4873H10.8137C10.7837 6.00037 10.7537 6.00024 10.7237 6.00024C10.6016 6.00024 10.4798 6.00206 10.3587 6.02026Z" fill="url(#paint1_linear)"/>
<mask id="mask1" mask-type="alpha" maskUnits="userSpaceOnUse" x="9" y="6" width="4" height="10">
<path fill-rule="evenodd" clip-rule="evenodd" d="M10.3587 6.02026C10.1285 6.05483 9.90759 6.1368 9.71452 6.25762C9.26969 6.53607 9.00351 7.00753 9.00155 7.50366C9.001 7.64953 9.00155 7.7954 9.00155 7.94131V8.87039V9.95059V10.8416V11.1105V11.1815C9.00155 11.209 9.00127 11.2032 9.03508 11.2181C9.07269 11.2346 9.11048 11.2506 9.14845 11.2662C9.45159 11.3905 9.7713 11.4851 10.1012 11.5224C10.3384 11.5491 10.5917 11.5566 10.8157 11.469C10.9951 11.3989 11.1381 11.2695 11.2116 11.1017C11.2589 10.9939 11.2724 10.88 11.2724 10.7646V9.48586V9.19797V9.10614C11.2724 9.09696 11.2668 9.06831 11.2724 9.06061C11.2794 9.051 11.3349 9.05714 11.3508 9.05714H11.4717H11.71H12.6666V9.0835V10.3459C12.6666 10.4941 12.6669 10.6423 12.6666 10.7905C12.6663 10.9632 12.6389 11.1365 12.5625 11.2951C12.4865 11.4533 12.3644 11.5869 12.2136 11.6886C11.8478 11.9353 11.3631 11.9996 10.921 12.0181C10.6047 12.0313 10.2872 12.0199 9.97228 11.9908C9.64686 11.9607 9.31764 11.916 9.00155 11.8372V11.9396V12.6415V13.6656V14.5907V14.885V14.9676C9.00155 14.972 8.99807 14.9937 9.00155 14.9973C9.00813 15.0039 9.06807 14.9973 9.07992 14.9973H9.16003H9.32404H9.64832H10.2983H10.9485C11.2241 14.9973 11.5068 15.0149 11.7763 14.9519C12.2474 14.8417 12.6477 14.5335 12.8515 14.1255C12.9634 13.9015 13 13.6635 13 13.4196V13.0177V12.3406V11.4631V10.4645V9.41104V8.38154V7.45428V6.69645V6.18686V6.00037H12.8384H12.163H11.4873H10.8137C10.7837 6.00037 10.7537 6.00024 10.7237 6.00024C10.6016 6.00024 10.4798 6.00206 10.3587 6.02026Z" fill="white"/>
</mask>
<g mask="url(#mask1)">
</g>
<path fill-rule="evenodd" clip-rule="evenodd" d="M15.5194 6.00397C15.344 6.01425 15.1705 6.05085 15.008 6.1127C14.6497 6.24924 14.3518 6.50407 14.1763 6.8238C14.0614 7.03315 14.0033 7.26585 14.0022 7.50041C14.0021 7.53836 14.0022 7.57632 14.0022 7.61431V8.27984V9.46298C14.0132 9.45427 14.0244 9.44568 14.0358 9.43717C14.0759 9.40713 14.1177 9.37904 14.1607 9.35272C14.4286 9.18894 14.7413 9.09722 15.0549 9.04306C15.3102 8.99897 15.5702 8.98002 15.8297 8.97541C16.0849 8.97092 16.3409 8.97896 16.5949 9.00439C16.8539 9.03028 17.1114 9.07069 17.3661 9.12121C17.3974 9.12743 17.4287 9.13377 17.4599 9.14037C17.4765 9.14393 17.5405 9.14875 17.5494 9.1606C17.5558 9.16906 17.5494 9.20282 17.5494 9.21259V9.33462V9.79465C17.5132 9.77777 17.4769 9.76122 17.4402 9.74523C17.163 9.62401 16.8709 9.53398 16.5677 9.48972C16.1603 9.43019 15.6993 9.43184 15.3476 9.65731C15.008 9.87495 14.8892 10.2612 14.9259 10.6284C14.9616 10.9858 15.1753 11.2922 15.535 11.4351C15.8904 11.5762 16.3028 11.5572 16.6749 11.4891C16.9803 11.4333 17.2714 11.331 17.5494 11.2028V11.2482V11.7843C17.5494 11.7943 17.5559 11.8282 17.5494 11.8368C17.5407 11.8483 17.4758 11.8532 17.4599 11.8566C17.3949 11.8703 17.3297 11.8832 17.2644 11.8953C17.0077 11.9431 16.7484 11.981 16.4876 12.0026C16.2323 12.0237 15.9744 12.0279 15.7183 12.0189C15.4569 12.0099 15.1951 11.985 14.9395 11.9325C14.6025 11.8635 14.267 11.7447 14.0022 11.5346V11.6334V12.3239V13.3541V14.3571V14.9518C14.0022 14.9589 13.9972 14.9882 14.0022 14.9939C14.0132 15.0062 14.1041 14.9961 14.1254 14.9961H14.4574H15.1249H15.7889C16.0232 14.9961 16.2616 15.0076 16.4954 14.9922C16.9193 14.9642 17.3208 14.7789 17.6003 14.4826C17.8679 14.1988 18 13.8396 18 13.4653V13.1295V12.4877V11.6208V10.6092V9.53749V8.4773V7.51666V6.72814V6.19609V6.00092H17.8774H16.8467H15.8201C15.7716 6.00092 15.7229 6.00024 15.6742 6.00024C15.6225 6.00024 15.5708 6.00101 15.5194 6.00397Z" fill="url(#paint2_linear)"/>
<mask id="mask2" mask-type="alpha" maskUnits="userSpaceOnUse" x="14" y="6" width="4" height="10">
<path fill-rule="evenodd" clip-rule="evenodd" d="M15.5194 6.00397C15.344 6.01425 15.1705 6.05085 15.008 6.1127C14.6497 6.24924 14.3518 6.50407 14.1763 6.8238C14.0614 7.03315 14.0033 7.26585 14.0022 7.50041C14.0021 7.53836 14.0022 7.57632 14.0022 7.61431V8.27984V9.46298C14.0132 9.45427 14.0244 9.44568 14.0358 9.43717C14.0759 9.40713 14.1177 9.37904 14.1607 9.35272C14.4286 9.18894 14.7413 9.09722 15.0549 9.04306C15.3102 8.99897 15.5702 8.98002 15.8297 8.97541C16.0849 8.97092 16.3409 8.97896 16.5949 9.00439C16.8539 9.03028 17.1114 9.07069 17.3661 9.12121C17.3974 9.12743 17.4287 9.13377 17.4599 9.14037C17.4765 9.14393 17.5405 9.14875 17.5494 9.1606C17.5558 9.16906 17.5494 9.20282 17.5494 9.21259V9.33462V9.79465C17.5132 9.77777 17.4769 9.76122 17.4402 9.74523C17.163 9.62401 16.8709 9.53398 16.5677 9.48972C16.1603 9.43019 15.6993 9.43184 15.3476 9.65731C15.008 9.87495 14.8892 10.2612 14.9259 10.6284C14.9616 10.9858 15.1753 11.2922 15.535 11.4351C15.8904 11.5762 16.3028 11.5572 16.6749 11.4891C16.9803 11.4333 17.2714 11.331 17.5494 11.2028V11.2482V11.7843C17.5494 11.7943 17.5559 11.8282 17.5494 11.8368C17.5407 11.8483 17.4758 11.8532 17.4599 11.8566C17.3949 11.8703 17.3297 11.8832 17.2644 11.8953C17.0077 11.9431 16.7484 11.981 16.4876 12.0026C16.2323 12.0237 15.9744 12.0279 15.7183 12.0189C15.4569 12.0099 15.1951 11.985 14.9395 11.9325C14.6025 11.8635 14.267 11.7447 14.0022 11.5346V11.6334V12.3239V13.3541V14.3571V14.9518C14.0022 14.9589 13.9972 14.9882 14.0022 14.9939C14.0132 15.0062 14.1041 14.9961 14.1254 14.9961H14.4574H15.1249H15.7889C16.0232 14.9961 16.2616 15.0076 16.4954 14.9922C16.9193 14.9642 17.3208 14.7789 17.6003 14.4826C17.8679 14.1988 18 13.8396 18 13.4653V13.1295V12.4877V11.6208V10.6092V9.53749V8.4773V7.51666V6.72814V6.19609V6.00092H17.8774H16.8467H15.8201C15.7716 6.00092 15.7229 6.00024 15.6742 6.00024C15.6225 6.00024 15.5708 6.00101 15.5194 6.00397Z" fill="white"/>
</mask>
<g mask="url(#mask2)">
</g>
</g>
<defs>
<linearGradient id="paint0_linear" x1="23" y1="5.61101" x2="19.1352" y2="5.61101" gradientUnits="userSpaceOnUse">
<stop stop-color="#43C311"/>
<stop offset="1" stop-color="#288C00"/>
</linearGradient>
<linearGradient id="paint1_linear" x1="9.01031" y1="15.0227" x2="13.0503" y2="15.0227" gradientUnits="userSpaceOnUse">
<stop stop-color="#21469E"/>
<stop offset="1" stop-color="#1E81EB"/>
</linearGradient>
<linearGradient id="paint2_linear" x1="18" y1="6.00024" x2="14" y2="6.00024" gradientUnits="userSpaceOnUse">
<stop stop-color="#F42D3E"/>
<stop offset="1" stop-color="#9C0017"/>
</linearGradient>
<clipPath id="clip0">
<rect width="32" height="21" fill="white" transform="translate(0 0.000244141)"/>
</clipPath>
</defs>
</svg>
