<svg width="34" height="34" viewBox="0 0 34 34" fill="none" xmlns="http://www.w3.org/2000/svg">
<path d="M25.883 4.99304L27.0777 5.64642L27.731 6.84114C27.7749 6.92133 27.8395 6.98824 27.9182 7.03485C27.9968 7.08146 28.0865 7.10606 28.1779 7.10606C28.2693 7.10606 28.359 7.08146 28.4377 7.03485C28.5163 6.98824 28.5809 6.92133 28.6248 6.84114L29.2782 5.64642L30.4728 4.99304C30.553 4.94919 30.62 4.88456 30.6666 4.80594C30.7132 4.72732 30.7378 4.63761 30.7378 4.54621C30.7378 4.45481 30.7132 4.36509 30.6666 4.28647C30.62 4.20784 30.5531 4.14321 30.4729 4.09936L29.2782 3.44591L28.6248 2.25125C28.5809 2.17106 28.5163 2.10415 28.4377 2.05754C28.359 2.01092 28.2693 1.98633 28.1779 1.98633C28.0865 1.98633 27.9968 2.01092 27.9182 2.05754C27.8395 2.10415 27.7749 2.17106 27.731 2.25125L27.0777 3.44591L25.883 4.09939C25.8028 4.14325 25.7359 4.20787 25.6892 4.2865C25.6426 4.36512 25.618 4.45484 25.618 4.54624C25.618 4.63764 25.6426 4.72736 25.6893 4.80597C25.7359 4.88459 25.8028 4.94922 25.883 4.99307V4.99304ZM27.6974 4.26803C27.7828 4.22128 27.8531 4.15102 27.8998 4.06558L28.1779 3.55706L28.456 4.06558C28.5028 4.15102 28.573 4.22128 28.6585 4.26803L29.167 4.54619L28.6585 4.8243C28.573 4.87102 28.5028 4.94129 28.456 5.02675L28.1779 5.53527L27.8998 5.02674C27.8531 4.94127 27.7828 4.871 27.6973 4.82428L27.1888 4.54618L27.6974 4.26803Z" fill="#8A5137"/>
<path d="M1.91829 14.1609L3.11294 14.8143L3.76631 16.009C3.81017 16.0892 3.87481 16.1561 3.95343 16.2027C4.03206 16.2493 4.12178 16.2739 4.21318 16.2739C4.30459 16.2739 4.3943 16.2493 4.47293 16.2027C4.55156 16.1561 4.61619 16.0892 4.66005 16.009L5.31343 14.8143L6.5081 14.1609C6.5883 14.117 6.65521 14.0524 6.70183 13.9738C6.74845 13.8952 6.77305 13.8055 6.77305 13.7141C6.77306 13.6227 6.74846 13.5329 6.70185 13.4543C6.65524 13.3757 6.58832 13.3111 6.50813 13.2672L5.31345 12.6138L4.66007 11.4191C4.61621 11.3389 4.55157 11.272 4.47295 11.2254C4.39432 11.1788 4.3046 11.1542 4.2132 11.1542C4.1218 11.1542 4.03208 11.1788 3.95345 11.2254C3.87483 11.272 3.81019 11.3389 3.76633 11.4191L3.11294 12.6138L1.91826 13.2672C1.83806 13.3111 1.77115 13.3757 1.72453 13.4543C1.67792 13.533 1.65332 13.6227 1.65332 13.7141C1.65332 13.8055 1.67792 13.8952 1.72453 13.9738C1.77115 14.0524 1.83806 14.1171 1.91826 14.1609L1.91829 14.1609ZM3.73264 13.4359C3.81808 13.3891 3.88834 13.3189 3.93509 13.2334L4.2132 12.7249L4.4913 13.2334C4.53805 13.3189 4.60831 13.3891 4.69376 13.4359L5.20227 13.714L4.69379 13.9921C4.60831 14.0389 4.53804 14.1091 4.4913 14.1946L4.21319 14.7031L3.93509 14.1946C3.88835 14.1091 3.81807 14.0389 3.73259 13.9921L3.2241 13.714L3.73264 13.4359Z" fill="#8A5137"/>
<path d="M32.188 31.8139L29.4022 26.0801L28.7877 24.2357L27.8213 24.5576L28.4463 26.4337C28.4533 26.4547 28.4617 26.4753 28.4714 26.4953L31.2206 32.1537V32.5458H32.2392V32.0365C32.2392 31.9594 32.2217 31.8833 32.188 31.8139Z" fill="#8A5137"/>
<path d="M26.6267 27.1338C26.586 27.0063 26.4969 26.9 26.3784 26.8377L24.2978 25.7443L21.8298 22.299C21.9392 22.2424 22.0607 22.2132 22.1838 22.2138C22.307 22.2143 22.4282 22.2447 22.537 22.3023L24.2735 23.2186C24.3651 23.2669 24.4692 23.2862 24.572 23.2738C24.6748 23.2614 24.7714 23.218 24.8489 23.1494C24.9264 23.0807 24.9812 22.9901 25.0059 22.8896C25.0306 22.789 25.024 22.6833 24.9871 22.5866L22.6628 16.494C22.6596 16.4857 22.6562 16.4775 22.6526 16.4693C22.5822 16.3098 22.5683 16.1309 22.6132 15.9624C22.6582 15.7939 22.7593 15.6457 22.8998 15.5424L25.9823 19.6667C25.9849 19.6701 25.9875 19.6735 25.9901 19.6769C26.2417 19.996 26.4322 20.3588 26.552 20.7471C26.5531 20.7507 26.5542 20.7541 26.5554 20.7576L27.482 23.5389L28.4484 23.217L27.5235 20.4408C27.3675 19.9372 27.1204 19.4664 26.7945 19.0519L23.4748 14.6102C23.4119 14.526 23.3244 14.4633 23.2245 14.4308C23.1245 14.3982 23.0169 14.3974 22.9165 14.4284L22.8246 14.4568C22.5853 14.5308 22.3643 14.6543 22.176 14.8195C21.9876 14.9846 21.8362 15.1875 21.7316 15.415C21.6269 15.6426 21.5714 15.8896 21.5686 16.1401C21.5658 16.3905 21.6158 16.6387 21.7153 16.8686L23.5536 21.6869L23.0124 21.4014C22.6816 21.2264 22.3041 21.1601 21.9334 21.2119C21.5628 21.2638 21.2179 21.4311 20.9478 21.6902L20.7881 21.8431C20.6995 21.9279 20.6445 22.0417 20.6332 22.1638C20.6218 22.2859 20.6549 22.4079 20.7263 22.5076L23.54 26.4356C23.5862 26.5002 23.6468 26.553 23.7171 26.5899L25.7196 27.6423L27.146 32.1157V32.5458H28.1647V32.0365C28.1647 31.984 28.1565 31.9318 28.1406 31.8818L26.6267 27.1338Z" fill="#8A5137"/>
<path d="M10.3791 26.4356L13.1928 22.5076C13.2642 22.4079 13.2973 22.2859 13.2859 22.1638C13.2746 22.0418 13.2195 21.9279 13.131 21.8431L12.9712 21.6901C12.7011 21.4311 12.3562 21.2638 11.9856 21.212C11.615 21.1601 11.2375 21.2264 10.9067 21.4014L10.3655 21.687L12.2037 16.8686C12.3033 16.6388 12.3533 16.3905 12.3505 16.1401C12.3477 15.8896 12.2922 15.6426 12.1875 15.415C12.0828 15.1875 11.9314 14.9845 11.743 14.8194C11.5547 14.6543 11.3337 14.5308 11.0944 14.4568L11.0026 14.4285C10.9021 14.3974 10.7945 14.3982 10.6946 14.4308C10.5946 14.4633 10.5072 14.526 10.4443 14.6102L7.12452 19.052C6.79869 19.4665 6.55162 19.9373 6.39555 20.4409L4.51675 26.0803L1.73088 31.8234C1.69727 31.8927 1.67981 31.9687 1.67981 32.0457V32.5459H2.69846V32.1627L5.44774 26.495C5.45738 26.4751 5.46572 26.4547 5.4727 26.4337L7.3637 20.7577C7.36488 20.7542 7.366 20.7508 7.36709 20.7472C7.48685 20.3589 7.67734 19.9961 7.92896 19.677C7.93163 19.6736 7.93421 19.6702 7.93679 19.6668L11.0192 15.5425C11.1598 15.6458 11.2609 15.794 11.3058 15.9625C11.3508 16.131 11.3369 16.3099 11.2665 16.4694C11.2629 16.4776 11.2595 16.4858 11.2563 16.4941L8.93196 22.5866C8.89505 22.6833 8.88851 22.789 8.9132 22.8896C8.93788 22.9901 8.99263 23.0808 9.07014 23.1494C9.14764 23.2181 9.24423 23.2615 9.34703 23.2738C9.44982 23.2862 9.55395 23.2669 9.64552 23.2186L11.382 22.3023C11.4909 22.2447 11.6121 22.2144 11.7352 22.2138C11.8584 22.2132 11.9798 22.2424 12.0892 22.299L9.62125 25.7443L7.54066 26.8377C7.42222 26.9 7.33304 27.0064 7.29236 27.1338L5.77847 31.8818C5.76252 31.9318 5.7544 31.984 5.75441 32.0365V32.5459H6.77306V32.1157L8.19944 27.6423L10.2019 26.5899C10.2722 26.553 10.3329 26.5002 10.3791 26.4356Z" fill="#8A5137"/>
<path d="M20.0337 27.5877C20.0587 27.6788 20.1086 27.761 20.1776 27.8254C20.2467 27.8897 20.3323 27.9336 20.4249 27.9521L25.0088 28.8689L25.2086 27.87L20.9326 27.0148L20.25 24.5325C20.2745 24.5127 20.2989 24.4927 20.3233 24.4724C20.5561 24.5285 20.7947 24.5568 21.0341 24.5565V23.5379C19.8917 23.5379 18.9968 22.573 18.9968 21.3412C18.9947 21.0477 19.0506 20.7566 19.1613 20.4847C19.2719 20.2128 19.4352 19.9655 19.6416 19.7568C19.7267 19.6711 19.7786 19.558 19.7881 19.4376C19.7975 19.3172 19.7638 19.1973 19.693 19.0994C19.4148 18.7137 19.2663 18.2496 19.2687 17.774C19.2687 16.8962 19.7658 16.1043 20.5352 15.7564C20.6049 15.7249 20.6666 15.6781 20.7157 15.6194C20.7649 15.5608 20.8002 15.4919 20.819 15.4177C20.8378 15.3436 20.8397 15.2661 20.8245 15.1912C20.8093 15.1162 20.7774 15.0456 20.7312 14.9846C20.5967 14.808 20.5241 14.592 20.5248 14.37C20.5248 14.1885 20.5732 14.0103 20.6652 13.8538C20.7572 13.6973 20.8893 13.5683 21.0479 13.48C21.2065 13.3917 21.3858 13.3474 21.5672 13.3517C21.7487 13.3559 21.9257 13.4086 22.08 13.5043C22.1611 13.5547 22.2548 13.5813 22.3503 13.581C22.4458 13.5808 22.5394 13.5537 22.6203 13.5029C22.9418 13.2998 23.3142 13.1918 23.6945 13.1915C24.8492 13.1915 25.7886 14.1769 25.7886 15.3881C25.7894 15.7796 25.689 16.1646 25.4972 16.5059L26.3838 17.0076C26.6807 16.4794 26.8265 15.8797 26.8053 15.2741C26.7841 14.6686 26.5966 14.0806 26.2635 13.5744C26.9156 12.4366 27.1245 11.098 26.8502 9.81552C26.576 8.53306 25.8378 7.39705 24.7773 6.62546L24.629 6.51759C24.2852 6.26762 23.9323 6.03583 23.57 5.82221C23.476 4.77384 22.7628 3.81447 21.5379 3.09998C20.3068 2.38181 18.6808 1.98633 16.9595 1.98633C15.2382 1.98633 13.6122 2.38181 12.3811 3.09998C11.1562 3.81447 10.443 4.77382 10.349 5.82219C9.98708 6.03571 9.6341 6.26751 9.29002 6.51759L9.1418 6.62546C8.50923 7.08387 7.98627 7.67694 7.61064 8.3619L8.50302 8.8532C8.80672 8.29939 9.22954 7.81988 9.74098 7.44925L9.88924 7.34139C11.9438 5.84715 14.419 5.04228 16.9595 5.04228C19.5 5.04228 21.9752 5.84715 24.0298 7.34139L24.1781 7.44925C24.9918 8.04134 25.5723 8.89988 25.8185 9.87558C26.0648 10.8513 25.9613 11.8824 25.526 12.7897C25.1111 12.4753 24.6224 12.2726 24.1068 12.201C23.6955 10.927 23.024 9.90125 22.1074 9.14855C21.0617 8.28975 19.6874 7.78018 18.0227 7.63388L17.9336 8.64868C20.5672 8.88004 22.2449 10.058 23.0447 12.2436C22.7998 12.2976 22.5624 12.3817 22.3382 12.494C21.9703 12.3387 21.5649 12.2948 21.1723 12.3677C20.7797 12.4407 20.4171 12.6274 20.1297 12.9046C19.8422 13.1818 19.6425 13.5373 19.5553 13.927C19.4681 14.3167 19.4973 14.7234 19.6392 15.0967C18.9823 15.5613 18.5186 16.2507 18.3359 17.0343C18.1532 17.818 18.2643 18.6413 18.648 19.3486C18.2103 19.9203 17.9747 20.6212 17.9782 21.3412C17.9782 22.4531 18.4887 23.4164 19.2819 23.9915C18.4617 24.5853 17.6545 24.9059 16.9595 24.9059C16.2646 24.9059 15.4573 24.5853 14.6371 23.9915C15.4304 23.4164 15.9409 22.4531 15.9409 21.3412C15.9443 20.6212 15.7087 19.9203 15.271 19.3486C15.6548 18.6414 15.7658 17.818 15.5831 17.0344C15.4005 16.2508 14.9368 15.5614 14.2798 15.0968C14.4221 14.7235 14.4516 14.3166 14.3646 13.9267C14.2775 13.5368 14.0778 13.1811 13.7902 12.9038C13.5027 12.6264 13.1399 12.4398 12.7471 12.3669C12.3543 12.2941 11.9488 12.3383 11.5809 12.494C11.3569 12.3818 11.1198 12.2977 10.8751 12.2437C11.2723 11.1666 11.893 10.3232 12.7253 9.73152C13.7744 8.98572 15.199 8.60755 16.9595 8.60755V7.5889C14.9833 7.5889 13.3601 8.03045 12.135 8.90126C11.0507 9.67205 10.2705 10.781 9.81225 12.201C9.29658 12.2726 8.80792 12.4753 8.39303 12.7898C7.94074 11.8466 7.84724 10.7711 8.12999 9.76403L7.14932 9.48836C6.95821 10.1689 6.90453 10.8808 6.99143 11.5823C7.07833 12.2838 7.30407 12.961 7.65547 13.5744C7.32238 14.0806 7.13497 14.6686 7.11375 15.2741C7.09254 15.8796 7.23834 16.4793 7.5352 17.0075L8.42179 16.5059C8.23001 16.1646 8.12963 15.7796 8.13038 15.3881C8.13037 14.1769 9.06983 13.1915 10.2246 13.1915C10.6048 13.1918 10.9773 13.2998 11.2988 13.5029C11.3796 13.5537 11.4732 13.5808 11.5687 13.5811C11.6642 13.5813 11.7579 13.5547 11.839 13.5043C12.0411 13.379 12.2807 13.3283 12.5163 13.3611C12.7518 13.3939 12.9684 13.5081 13.1286 13.6839C13.2888 13.8597 13.3824 14.086 13.3932 14.3235C13.404 14.5611 13.3314 14.7949 13.1879 14.9846C13.1416 15.0455 13.1097 15.1161 13.0945 15.1911C13.0793 15.2661 13.0812 15.3435 13.1 15.4176C13.1189 15.4918 13.1542 15.5607 13.2033 15.6194C13.2524 15.678 13.3141 15.7248 13.3838 15.7564C14.1532 16.1043 14.6503 16.8963 14.6503 17.7739C14.6528 18.2495 14.5042 18.7136 14.226 19.0994C14.1552 19.1973 14.1216 19.3171 14.131 19.4375C14.1404 19.5579 14.1923 19.6711 14.2774 19.7568C14.4839 19.9655 14.6471 20.2128 14.7578 20.4847C14.8684 20.7566 14.9243 21.0477 14.9222 21.3412C14.9222 22.573 14.0273 23.5379 12.8849 23.5379V24.5565C13.1243 24.5568 13.3629 24.5286 13.5956 24.4725C13.6201 24.4928 13.6445 24.5128 13.669 24.5327L12.9864 27.0149L8.71044 27.8701L8.9102 28.869L13.4941 27.9522C13.5867 27.9337 13.6723 27.8898 13.7414 27.8254C13.8105 27.7611 13.8603 27.6788 13.8854 27.5878L14.553 25.1601C15.38 25.6634 16.196 25.9246 16.9595 25.9246C17.723 25.9246 18.5391 25.6634 19.3661 25.16L20.0337 27.5877ZM16.9595 4.02363C15.1159 4.02025 13.2928 4.41007 11.6118 5.16706C12.3318 3.93048 14.4898 3.00498 16.9595 3.00498C19.4292 3.00498 21.5872 3.93048 22.3072 5.16706C20.6262 4.41006 18.8031 4.02025 16.9595 4.02363Z" fill="#8A5137"/>
<path d="M20.0155 29.0284V28.9805H18.9968V29.0284C18.9958 29.4205 19.1344 29.8002 19.3879 30.0994C19.6413 30.3986 19.993 30.5978 20.38 30.6612L25.5343 31.5203L25.7018 30.5154L20.5475 29.6564C20.3986 29.632 20.2634 29.5554 20.1659 29.4403C20.0684 29.3252 20.0151 29.1792 20.0155 29.0284Z" fill="#8A5137"/>
<path d="M13.9036 29.0284C13.904 29.1792 13.8507 29.3252 13.7532 29.4403C13.6557 29.5554 13.5204 29.632 13.3716 29.6564L8.21729 30.5154L8.38478 31.5203L13.539 30.6612C13.926 30.5978 14.2777 30.3986 14.5312 30.0994C14.7847 29.8002 14.9233 29.4205 14.9223 29.0284V28.9805H13.9036V29.0284Z" fill="#8A5137"/>
</svg>
