<svg width="32" height="21" viewBox="0 0 32 21" fill="none" xmlns="http://www.w3.org/2000/svg">
<g clip-path="url(#clip0)">
<path fill-rule="evenodd" clip-rule="evenodd" d="M0 1.50024C0 0.671818 0.671573 0.000244141 1.5 0.000244141H30.5C31.3284 0.000244141 32 0.671817 32 1.50024V19.5002C32 20.3287 31.3284 21.0002 30.5 21.0002H1.5C0.671573 21.0002 0 20.3287 0 19.5002V1.50024Z" fill="#F4F6F7"/>
<path fill-rule="evenodd" clip-rule="evenodd" d="M0 1.50024C0 0.671817 0.671573 0.000244141 1.5 0.000244141H30.5C31.3284 0.000244141 32 0.671817 32 1.50024V5.00024H0V1.50024Z" fill="#4095DB"/>
<path fill-rule="evenodd" clip-rule="evenodd" d="M0 16.0002H32V19.5002C32 20.3287 31.3284 21.0002 30.5 21.0002H1.5C0.671573 21.0002 0 20.3287 0 19.5002V16.0002Z" fill="#F4B662"/>
<path fill-rule="evenodd" clip-rule="evenodd" d="M20.1405 7.28486C19.8291 7.14876 19.3394 7.00024 18.7294 7.00024C17.1725 7.00024 16.0766 7.9206 16.0675 9.23834C16.0576 10.213 16.8495 10.7567 17.4466 11.0806C18.0602 11.4127 18.2664 11.6252 18.2639 11.9222C18.2597 12.3764 17.7741 12.5845 17.3214 12.5845C16.6909 12.5845 16.356 12.482 15.8381 12.2288L15.6355 12.1209L15.4153 13.6388C15.7825 13.8277 16.4632 13.9916 17.1697 14.0002C18.8243 14.0002 19.8995 13.0911 19.9121 11.6839C19.9177 10.911 19.4981 10.325 18.5893 9.84132C18.039 9.52696 17.7013 9.31866 17.7052 9.00039C17.7055 8.71847 17.9905 8.41683 18.6073 8.41683C19.1224 8.40762 19.4952 8.53951 19.7858 8.67731L19.9272 8.75493L20.1405 7.28486ZM12.8536 13.8997L13.8388 7.11842H15.4135L14.4284 13.8997H12.8536ZM22.8646 9.60007C22.8646 9.60007 22.3678 11.1057 22.2373 11.4955H23.5446C23.4824 11.1565 23.1802 9.53788 23.1802 9.53788L23.0739 8.95302C23.0319 9.08742 22.9732 9.26558 22.9286 9.40101C22.8889 9.52171 22.8603 9.60847 22.8646 9.60007ZM24.1801 7.12533H22.9631C22.5856 7.12533 22.3031 7.2453 22.1377 7.68746L19.7991 13.9021H21.4531C21.4531 13.9021 21.7229 13.0661 21.7842 12.8826C21.869 12.8826 22.2689 12.8834 22.6929 12.8842C23.171 12.8851 23.6796 12.8861 23.8011 12.8861C23.8483 13.1228 23.9929 13.9021 23.9929 13.9021H25.4545L24.1801 7.12533ZM11.5325 7.12413L9.99122 11.7473L9.82612 10.8075L9.27428 7.69166C9.17908 7.26193 8.9024 7.13454 8.56042 7.11952H6.02099L6 7.26003C6.61781 7.43565 7.17026 7.6889 7.65441 8.00388L9.05479 13.8938L10.7214 13.8927L13.2013 7.12413H11.5325Z" fill="#0071CE"/>
<path fill-rule="evenodd" clip-rule="evenodd" d="M0 1.50024C0 0.671818 0.671573 0.000244141 1.5 0.000244141H30.5C31.3284 0.000244141 32 0.671817 32 1.50024V19.5002C32 20.3287 31.3284 21.0002 30.5 21.0002H1.5C0.671573 21.0002 0 20.3287 0 19.5002V1.50024Z" fill="#E5E5E5" fill-opacity="0.01"/>
</g>
<defs>
<clipPath id="clip0">
<rect width="32" height="21" fill="white" transform="translate(0 0.000244141)"/>
</clipPath>
</defs>
</svg>
