<svg width="30" height="30" viewBox="0 0 30 30" fill="none" xmlns="http://www.w3.org/2000/svg">
<g clip-path="url(#clip0)">
<path d="M20.3279 26.9618V23.5229C20.3279 20.679 18.72 18.0639 16.2047 16.772C18.0293 15.8354 19.4042 14.1928 20.0018 12.2205C20.07 11.9953 19.9427 11.7573 19.7174 11.689C19.4922 11.6207 19.2542 11.748 19.1859 11.9733C18.6277 13.8158 17.3053 15.3342 15.5577 16.1391L15.0242 16.3849C14.8731 16.4545 14.7763 16.6056 14.7763 16.772C14.7763 16.9384 14.8731 17.0895 15.0242 17.1591L15.5578 17.405C17.9377 18.5012 19.4755 20.9027 19.4755 23.5229V26.8602H18.1684V25.5227C18.1684 25.2873 17.9776 25.0965 17.7422 25.0965C17.5069 25.0965 17.316 25.2873 17.316 25.5227V26.8602H9.00988V23.5229C9.00988 21.7427 10.0547 20.111 11.6717 19.3661L13.163 18.6792L14.6543 19.3663C16.2713 20.111 17.3161 21.7426 17.3161 23.5229V23.7064C17.3161 23.9418 17.5069 24.1326 17.7423 24.1326C17.9777 24.1326 18.1685 23.9418 18.1685 23.7064V23.5229C18.1685 21.411 16.9291 19.4755 15.011 18.592L13.3413 17.8229C13.2281 17.7707 13.0978 17.7707 12.9847 17.8229L11.3151 18.592C9.39699 19.4755 8.15758 21.411 8.15758 23.5229V26.8602H6.85054V23.5229C6.85054 20.9026 8.38836 18.5011 10.7683 17.4049L11.3018 17.1591C11.453 17.0895 11.5497 16.9384 11.5497 16.772C11.5497 16.6056 11.453 16.4545 11.3018 16.3849L10.7682 16.139C8.88605 15.2721 7.52713 13.619 7.03995 11.6037C6.9846 11.3749 6.75411 11.2345 6.52555 11.2896C6.29676 11.345 6.15611 11.5753 6.2114 11.8041C6.73484 13.9693 8.15161 15.7634 10.1211 16.7721C7.60612 18.064 5.99807 20.6791 5.99807 23.5229V26.9393C5.54283 27.1121 5.21777 27.5516 5.21777 28.0667V28.6644C5.21777 29.3297 5.759 29.8709 6.42428 29.8709H19.8449C20.5102 29.8709 21.0514 29.3297 21.0514 28.6644V28.0667C21.0514 27.5732 20.7532 27.1486 20.3279 26.9618ZM20.1989 28.6644C20.1989 28.8597 20.0401 29.0185 19.8449 29.0185H6.42422C6.22896 29.0185 6.07013 28.8596 6.07013 28.6644V28.0667C6.07013 27.8714 6.22896 27.7126 6.42422 27.7126H19.8449C20.0401 27.7126 20.1989 27.8715 20.1989 28.0667V28.6644Z" fill="#8A5137"/>
<path d="M5.99795 6.60473V9.88777C5.99795 10.1232 6.18878 10.314 6.42416 10.314C6.65954 10.314 6.85036 10.1232 6.85036 9.88777V6.68395H8.1574V10.0213C8.1574 12.1331 9.39681 14.0686 11.3149 14.9521L12.9846 15.7212C13.0412 15.7473 13.102 15.7603 13.1629 15.7603C13.2237 15.7603 13.2847 15.7473 13.3412 15.7212L15.0107 14.9521C16.3565 14.3323 17.4027 13.168 17.8811 11.758C17.9567 11.5351 17.8373 11.2931 17.6144 11.2174C17.3916 11.142 17.1495 11.2612 17.0739 11.4841C16.6703 12.6736 15.7883 13.6554 14.6541 14.1779L13.1628 14.8648L11.6714 14.1778C10.0545 13.433 9.0097 11.8015 9.0097 10.0212V6.68389H13.5986C13.834 6.68389 14.0248 6.49312 14.0248 6.25768C14.0248 6.02225 13.834 5.83148 13.5986 5.83148H6.42416C6.2289 5.83148 6.07006 5.67264 6.07006 5.47738V4.87973C6.07006 4.68447 6.2289 4.52569 6.42416 4.52569H13.8093C14.0447 4.52569 14.2355 4.33492 14.2355 4.09949C14.2355 3.86405 14.0447 3.67328 13.8093 3.67328H6.42416C5.75888 3.67328 5.21765 4.2145 5.21765 4.87973V5.47744C5.21765 5.99247 5.5427 6.43197 5.99795 6.60473Z" fill="#8A5137"/>
<path d="M24.7132 4.27372C24.6427 4.04908 24.4037 3.924 24.1789 3.99458C23.9544 4.06499 23.8294 4.30418 23.8998 4.52876C24.0268 4.93377 24.0912 5.35606 24.0912 5.78392C24.0912 8.09407 22.2117 9.97353 19.9016 9.97353C17.5914 9.97353 15.712 8.09413 15.712 5.78392C15.712 3.4737 17.5915 1.59436 19.9016 1.59436C21.1366 1.59436 22.3031 2.13644 23.1021 3.08159C23.254 3.26134 23.5229 3.2839 23.7027 3.13194C23.8824 2.97998 23.905 2.71108 23.753 2.53133C22.7917 1.39415 21.388 0.741943 19.9016 0.741943C17.1215 0.741943 14.8596 3.0038 14.8596 5.78397C14.8596 8.56415 17.1215 10.826 19.9016 10.826C22.6818 10.826 24.9437 8.56415 24.9437 5.78397C24.9437 5.26945 24.8662 4.7613 24.7132 4.27372Z" fill="#8A5137"/>
<path d="M19.9015 3.04327C19.6662 3.04327 19.4753 3.23404 19.4753 3.46948V5.70212C19.4753 5.86869 19.5402 6.02524 19.658 6.14322L21.2368 7.72189C21.32 7.80509 21.4291 7.84668 21.5381 7.84668C21.6472 7.84668 21.7563 7.80509 21.8395 7.72183C22.0059 7.55538 22.0059 7.28557 21.8395 7.11912L20.3277 5.60739V3.46948C20.3278 3.23404 20.137 3.04327 19.9015 3.04327Z" fill="#8A5137"/>
</g>
<defs>
<clipPath id="clip0">
<rect width="29.129" height="29.129" fill="white" transform="translate(0.516113 0.741943)"/>
</clipPath>
</defs>
</svg>
