<svg width="122" height="12" viewBox="0 0 122 12" fill="none" xmlns="http://www.w3.org/2000/svg">
<g clip-path="url(#clip0)">
<path d="M5.9386 9.65908L6.61808 11.0755L6.44821 11.1411C5.7695 11.6253 4.94806 11.8872 4.10402 11.8886C3.01466 11.8886 1.96992 11.471 1.19962 10.7276C0.429328 9.9842 -0.00341797 8.97596 -0.00341797 7.92466C-0.00341797 6.87336 0.429328 5.86512 1.19962 5.12173C1.96992 4.37835 3.01466 3.96072 4.10402 3.96072C4.94138 3.95754 5.75875 4.20749 6.44142 4.67548L6.61129 4.75417L5.93181 6.12466L5.70079 5.96728C5.25387 5.60611 4.68684 5.41284 4.10402 5.42302C3.41923 5.42302 2.76248 5.68555 2.27826 6.15285C1.79404 6.62015 1.52201 7.25395 1.52201 7.91482C1.52201 8.57569 1.79404 9.20949 2.27826 9.67679C2.76248 10.1441 3.41923 10.4066 4.10402 10.4066C4.69862 10.3989 5.27315 10.1979 5.73476 9.83613L5.9386 9.65908Z" fill="#8A5137"/>
<path d="M20.2758 7.95422C20.261 8.71544 20.0135 9.45547 19.5643 10.0813C19.115 10.7072 18.4842 11.191 17.7509 11.4719C17.0177 11.7528 16.2148 11.8183 15.4431 11.6601C14.6714 11.502 13.9653 11.1273 13.4136 10.5831C12.8619 10.0388 12.4892 9.3494 12.3422 8.60137C12.1953 7.85334 12.2807 7.0801 12.5878 6.37879C12.8949 5.67747 13.4099 5.07939 14.0681 4.65967C14.7263 4.23996 15.4983 4.01734 16.2872 4.0198C17.3559 4.03363 18.3755 4.45529 19.1229 5.19259C19.8703 5.92988 20.2848 6.9228 20.2758 7.95422ZM18.8285 7.95422C18.8164 7.47028 18.6566 7.00053 18.3691 6.60385C18.0816 6.20717 17.6792 5.9012 17.2123 5.7243C16.7454 5.5474 16.2348 5.50743 15.7444 5.60941C15.2541 5.71138 14.8058 5.95076 14.4558 6.29755C14.1058 6.64433 13.8697 7.08309 13.777 7.55884C13.6843 8.03458 13.7392 8.52615 13.9347 8.97193C14.1303 9.41771 14.4579 9.79787 14.8763 10.0648C15.2948 10.3317 15.7856 10.4734 16.2872 10.4723C16.6254 10.468 16.9594 10.3995 17.2702 10.2706C17.5809 10.1417 17.8623 9.95505 18.0983 9.72122C18.3343 9.4874 18.5202 9.211 18.6455 8.90781C18.7708 8.60463 18.833 8.2806 18.8285 7.95422Z" fill="#8A5137"/>
<path d="M54.6503 8.00002C54.6582 8.23572 54.6354 8.47146 54.5823 8.70166H48.1545C48.2914 9.22709 48.6053 9.69376 49.0467 10.0284C49.4882 10.3631 50.0324 10.5469 50.5938 10.5508C51.0808 10.5561 51.5568 10.4114 51.9527 10.1377H53.9912C53.6405 10.7055 53.143 11.1756 52.5474 11.5021C51.9519 11.8285 51.2787 12.0001 50.5938 12C49.7694 12.0143 48.9592 11.7914 48.2665 11.3597C47.5739 10.9279 47.0302 10.3069 46.7047 9.57583C46.3791 8.84472 46.2866 8.03663 46.4388 7.25455C46.591 6.47248 46.981 5.75186 47.5592 5.18455C48.1375 4.61725 48.8776 4.22895 49.6854 4.06916C50.4931 3.90937 51.3319 3.98533 52.0948 4.28735C52.8576 4.58937 53.51 5.10377 53.9688 5.76499C54.4275 6.4262 54.6719 7.20427 54.6706 8.00002H54.6503ZM48.1545 7.28526H53.0671C52.9181 6.76059 52.5961 6.297 52.1499 5.96457C51.7037 5.63213 51.1574 5.44892 50.5938 5.44264C50.0342 5.44955 49.4924 5.63358 49.0517 5.96647C48.611 6.29936 48.2958 6.76269 48.1545 7.28526Z" fill="#8A5137"/>
<path d="M68.2125 8.00002C68.2205 8.23572 68.1977 8.47146 68.1446 8.70166H61.7167C61.8537 9.22709 62.1675 9.69376 62.609 10.0284C63.0505 10.3631 63.5947 10.5469 64.1561 10.5508C64.643 10.5561 65.1191 10.4114 65.515 10.1377H67.5534C67.2003 10.7107 66.6976 11.1843 66.0955 11.5111C65.4933 11.8379 64.8129 12.0065 64.1221 12C63.2977 12.0143 62.4875 11.7914 61.7949 11.3597C61.1022 10.9279 60.5585 10.3069 60.233 9.57583C59.9075 8.84472 59.8149 8.03663 59.9671 7.25455C60.1193 6.47248 60.5094 5.75186 61.0876 5.18455C61.6658 4.61725 62.4059 4.22895 63.2137 4.06916C64.0214 3.90937 64.8602 3.98533 65.6231 4.28735C66.3859 4.58937 67.0383 5.10377 67.4971 5.76499C67.9558 6.4262 68.2002 7.20427 68.1989 8.00002H68.2125ZM61.7167 7.28526H66.6158C66.4668 6.76059 66.1448 6.297 65.6986 5.96457C65.2524 5.63213 64.7061 5.44892 64.1425 5.44264C63.5852 5.45239 63.0466 5.63773 62.6086 5.9704C62.1707 6.30307 61.8575 6.76482 61.7167 7.28526Z" fill="#8A5137"/>
<path d="M92.4361 3.96729V11.9411H90.9345V11.0493C90.2379 11.6293 89.3472 11.9461 88.4272 11.9411C87.3459 11.9411 86.309 11.5265 85.5444 10.7887C84.7799 10.0508 84.3503 9.05011 84.3503 8.00663C84.3503 6.96316 84.7799 5.96242 85.5444 5.22457C86.309 4.48672 87.3459 4.0722 88.4272 4.0722C89.3472 4.06718 90.2379 4.384 90.9345 4.96401V3.96729H92.4361ZM90.9345 8.32794V7.6722C90.8482 7.04352 90.5175 6.47001 90.0093 6.06797C89.5011 5.66592 88.8535 5.46542 88.1978 5.50712C87.5421 5.54882 86.9274 5.8296 86.4783 6.29254C86.0291 6.75547 85.7792 7.36591 85.7792 8.00007C85.7792 8.63424 86.0291 9.24467 86.4783 9.70761C86.9274 10.1705 87.5421 10.4513 88.1978 10.493C88.8535 10.5347 89.5011 10.3342 90.0093 9.93218C90.5175 9.53013 90.8482 8.95662 90.9345 8.32794Z" fill="#8A5137"/>
<path d="M103.776 9.6918L104.456 11.1082L104.293 11.1738C103.613 11.6568 102.792 11.9186 101.949 11.9213C100.859 11.9213 99.8145 11.5037 99.0442 10.7603C98.2739 10.0169 97.8412 9.00867 97.8412 7.95737C97.8412 6.90607 98.2739 5.89783 99.0442 5.15445C99.8145 4.41107 100.859 3.99344 101.949 3.99344C102.788 3.99021 103.608 4.24009 104.293 4.70819L104.456 4.78688L103.776 6.15737L103.545 6C103.103 5.64077 102.541 5.44754 101.962 5.45573C101.277 5.45573 100.621 5.71826 100.136 6.18557C99.6522 6.65287 99.3802 7.28667 99.3802 7.94754C99.3802 8.6084 99.6522 9.2422 100.136 9.70951C100.621 10.1768 101.277 10.4393 101.962 10.4393C102.557 10.4316 103.131 10.2306 103.593 9.86885L103.776 9.6918Z" fill="#8A5137"/>
<path d="M117.984 7.96071C117.992 8.19642 117.969 8.43215 117.916 8.66235H111.461C111.598 9.18778 111.912 9.65446 112.354 9.98914C112.795 10.3238 113.339 10.5076 113.901 10.5115C114.388 10.5168 114.864 10.3721 115.26 10.0984H117.298C116.944 10.6705 116.441 11.1434 115.839 11.47C115.237 11.7967 114.557 11.9659 113.867 11.9607C113.042 11.975 112.232 11.7521 111.539 11.3204C110.847 10.8886 110.303 10.2676 109.977 9.53653C109.652 8.80542 109.559 7.99732 109.712 7.21525C109.864 6.43318 110.254 5.71256 110.832 5.14525C111.41 4.57794 112.15 4.18964 112.958 4.02985C113.766 3.87006 114.605 3.94602 115.368 4.24804C116.13 4.55006 116.783 5.06447 117.242 5.72568C117.7 6.38689 117.945 7.16496 117.943 7.96071H117.984ZM111.461 7.24596H116.374C116.225 6.72129 115.903 6.2577 115.457 5.92526C115.01 5.59282 114.464 5.40962 113.901 5.40333C113.341 5.41024 112.799 5.59428 112.359 5.92717C111.918 6.26006 111.603 6.72338 111.461 7.24596Z" fill="#8A5137"/>
<path d="M27.9536 5.37713V11.9345H26.5267V5.37713V3.92795C26.5265 3.40176 26.6357 2.88087 26.8477 2.39611C27.0598 1.91135 27.3705 1.47256 27.7614 1.10572C28.1523 0.738883 28.6154 0.451439 29.1235 0.260401C29.6315 0.0693636 30.1741 -0.0213858 30.7191 -0.00647698V1.49516C30.3722 1.47748 30.0251 1.52755 29.6987 1.64236C29.3723 1.75718 29.0733 1.93439 28.8195 2.16337C28.5657 2.39235 28.3625 2.6684 28.2219 2.97498C28.0813 3.28157 28.0062 3.61238 28.0012 3.94762L27.9536 5.37713Z" fill="#8A5137"/>
<path d="M30.9163 5.96069H25.2358V7.29184H30.9163V5.96069Z" fill="#8A5137"/>
<path d="M38.4313 5.37719V11.9346H36.9772V5.37719V3.92801C36.977 3.40239 37.0859 2.88206 37.2976 2.39774C37.5092 1.91342 37.8193 1.47494 38.2094 1.10819C38.5996 0.741442 39.062 0.453856 39.5692 0.262418C40.0764 0.0709796 40.6183 -0.0204299 41.1628 -0.00641324V1.49523C40.8158 1.47754 40.4688 1.52761 40.1424 1.64243C39.816 1.75724 39.5169 1.93445 39.2632 2.16343C39.0094 2.39241 38.8061 2.66846 38.6655 2.97504C38.5249 3.28163 38.4498 3.61245 38.4448 3.94769L38.4313 5.37719Z" fill="#8A5137"/>
<path d="M41.387 5.96069H35.7065V7.29184H41.387V5.96069Z" fill="#8A5137"/>
<path d="M76.2236 5.39672V11.9541H74.7695V5.39672V3.94754C74.7693 3.42192 74.8783 2.90159 75.0899 2.41727C75.3016 1.93295 75.6116 1.49447 76.0018 1.12772C76.392 0.760973 76.8543 0.473387 77.3616 0.281949C77.8688 0.0905108 78.4106 -0.000898681 78.9551 0.013118V1.5082C78.6082 1.49052 78.2611 1.54059 77.9347 1.6554C77.6083 1.77022 77.3093 1.94742 77.0555 2.1764C76.8017 2.40538 76.5985 2.68143 76.4579 2.98802C76.3173 3.2946 76.2422 3.62542 76.2372 3.96066L76.2236 5.39672Z" fill="#8A5137"/>
<path d="M79.1863 5.98022H73.5059V7.31137H79.1863V5.98022Z" fill="#8A5137"/>
<path d="M119.676 1.16724V1.42297H118.997V3.10166H118.711V1.42297H118.032V1.16724H119.676Z" fill="#8A5137"/>
<path d="M121.993 1.17383V3.09514H121.721V1.78366L121.103 3.09514L120.505 1.78366V3.09514H120.233V1.17383H120.559L121.103 2.41973L121.674 1.17383H121.993Z" fill="#8A5137"/>
</g>
<defs>
<clipPath id="clip0">
<rect width="122" height="12" fill="white"/>
</clipPath>
</defs>
</svg>
